<?xml version="1.0" encoding="UTF-8"?>
<!-- This file is generated by npm run build:icons -->
<svg
  xmlns="http://www.w3.org/2000/svg"
  xmlns:xlink="http://www.w3.org/1999/xlink"
  width="0"
  height="0"
>
  <defs>
    <symbol
      id="trash"
      fill="none"
      viewBox="0 0 24 24"
      stroke-width="1."
      stroke="currentColor"
    >
      <path
        stroke-linecap="round"
        stroke-linejoin="round"
        d="M14.74 9l-.346 9m-4.788 0L9.26 9m9.968-3.21c.342.052.682.107 1.022.166m-1.022-.165L18.16 19.673a2.25 2.25 0 01-2.244 2.077H8.084a2.25 2.25 0 01-2.244-2.077L4.772 5.79m14.456 0a48.108 48.108 0 00-3.478-.397m-12 .562c.34-.059.68-.114 1.022-.165m0 0a48.11 48.11 0 013.478-.397m7.5 0v-.916c0-1.18-.91-2.164-2.09-2.201a51.964 51.964 0 00-3.32 0c-1.18.037-2.09 1.022-2.09 2.201v.916m7.5 0a48.667 48.667 0 00-7.5 0"
      />
    </symbol>
    <symbol
      id="login"
      fill="none"
      viewBox="0 0 24 24"
      stroke-width="1.5"
      stroke="currentColor"
    >
      <path
        stroke-linecap="round"
        stroke-linejoin="round"
        d="M15.75 9V5.25A2.25 2.25 0 0013.5 3h-6a2.25 2.25 0 00-2.25 2.25v13.5A2.25 2.25 0 007.5 21h6a2.25 2.25 0 002.25-2.25V15M12 9l-3 3m0 0l3 3m-3-3h12.75"
      />
    </symbol>

    <symbol
      id="logout"
      fill="none"
      viewBox="0 0 24 24"
      stroke-width="1.5"
      stroke="currentColor"
    >
      <path
        stroke-linecap="round"
        stroke-linejoin="round"
        d="M15.75 9V5.25A2.25 2.25 0 0013.5 3h-6a2.25 2.25 0 00-2.25 2.25v13.5A2.25 2.25 0 007.5 21h6a2.25 2.25 0 002.25-2.25V15m3 0l3-3m0 0l-3-3m3 3H9"
      />
    </symbol>
  
    <symbol  
    id="arrow-up" 
    fill="currentColor"
    viewBox="0.000 0.000 8 10"
    stroke-width="0.2"
    stroke="currentColor"
    class="w-4 h-5" >
      <path d="M7.99 3.99a1 1 0 0 1-1.707.707L5 3.414V9a1 1 0 0 1-2 0V3.414L1.717 4.697A1 1 0 1 1 .303 3.283l2.99-2.98a1 1 0 0 1 1.414 0l2.99 2.98a.997.997 0 0 1 .293.707z"/>
    </symbol>


    <symbol  
    id="arrow" 
    fill="none"
    reserveAspectRatio="xMinYMin meet"
    viewBox="-100 0 512 512"
    stroke="currentColor"
    class="w-4 h-4" >
      <path d="    M146.662,26.814L358.221,238.27c10.755,10.222,10.755,26.193,0,36.414L146.662,486.139" style="stroke-width:38.4167;stroke-linecap:round;stroke-linejoin:round;stroke-miterlimit:2.6131;"/>
    </symbol>

    <symbol  
    id="cross"   
    stroke="currentColor"
    viewBox="-100 -100 712 712"
    class="w-4 h-4" >
      <g>
      <line style="stroke-width:20.4167;stroke-linecap:round;stroke-linejoin:round;stroke-miterlimit:2.6131;" x1="486.21" x2="26.739" y1="26.814" y2="486.139"/>
      <line style="stroke-width:20.4167;stroke-linecap:round;stroke-linejoin:round;stroke-miterlimit:2.6131;" x1="486.21" x2="26.739" y1="486.139" y2="26.814"/>
      </g>
    </symbol>

    <symbol  
    id="checkbox"  
    stroke="currentColor"
     fill="none"
    stroke-width="3"
    viewBox="0 0 64 64"
    class="w-16 h-16" >
      <polyline points="12 28 28 44 52 20"/>
    </symbol>

  </defs>
</svg>
